<svg xmlns="http://www.w3.org/2000/svg" viewBox="0 0 512 512"><path d="M504.5 81.34a7.5 7.5 0 007.5-7.5V38.96a7.5 7.5 0 00-7.5-7.5h-30.04a7.5 7.5 0 00-7.5 7.5v38.558c-10.63-7.709-25.622-6.78-35.196 2.795l-22.125 22.125c-8.551 8.552-10.203 21.425-4.967 31.652h-56.61c-5.858-6.882-14.576-11.26-24.302-11.26H203.27V79.84a7.5 7.5 0 00-15 0v17.955h-75.85V79.84a7.5 7.5 0 00-15 0v25.387c0 .023-.003.045-.003.068s.003.045.003.068v17.468h-9.36c-17.595 0-31.91 14.31-31.91 31.9v29.426H45.039v-71.325a7.5 7.5 0 00-15 0v78.699c-.001.042-.006.083-.006.126s.006.083.006.126v29.787c-.001.042-.006.083-.006.126s.006.083.006.126v168.342c0 .029-.004.058-.004.087s.004.058.004.087v29.866c0 .029-.004.058-.004.087s.004.058.004.087v45.164H15V46.459h15.039v37.377a7.5 7.5 0 0015 0V38.959a7.5 7.5 0 00-7.5-7.5H7.5a7.5 7.5 0 00-7.5 7.5v434.083a7.5 7.5 0 007.5 7.5h30.039a7.5 7.5 0 007.5-7.5V427.79H97.42v22.883c0 .023-.003.045-.003.068 0 .023.003.045.003.068v22.231a7.5 7.5 0 0015 0v-14.799h75.85v14.799a7.5 7.5 0 0015 0v-45.25h263.69v45.25a7.5 7.5 0 007.5 7.5h30.04a7.5 7.5 0 007.5-7.5V102.83c0-4.142-3.357-7.5-7.5-7.5s-7.5 3.358-7.5 7.5v362.71h-15.04v-70.29c0-.878-.159-1.717-.436-2.5a7.476 7.476 0 00.436-2.5V221.714l.001-.019-.001-.019v-30l.001-.019-.001-.019V46.46H497v27.38a7.5 7.5 0 007.5 7.5zm-84.254 31.705l22.125-22.125c2.305-2.305 5.37-3.575 8.63-3.575s6.325 1.27 8.63 3.575a12.121 12.121 0 013.575 8.63c0 3.26-1.27 6.325-3.575 8.63l-22.125 22.125c-2.305 2.305-5.37 3.575-8.63 3.575s-6.325-1.27-8.63-3.575a12.121 12.121 0 01-3.575-8.63 12.12 12.12 0 013.575-8.63zm-307.826-.25h75.85v10.036h-75.85v-10.036zM71.15 154.73c0-9.319 7.586-16.9 16.91-16.9h235.7c9.324 0 16.91 7.581 16.91 16.9v29.426H71.15V154.73zM45.039 382.75V229.195H97.42v21.845c0 .023-.003.045-.003.068 0 .023.003.045.003.068v46.801c0 .023-.003.045-.003.068 0 .023.003.045.003.068v23.308h-9.36c-17.595 0-31.91 14.31-31.91 31.9v29.43l-11.111-.001zm143.231 60.491h-75.85V427.79h75.85v15.451zm278.69-30.451H45.039v-15.04H466.96v15.04zm0-30.04H355.67v-29.43c0-1.905-.188-3.788-.52-5.64h111.81v35.07zm-50.289-62.273c0-3.26 1.27-6.325 3.575-8.63l22.125-22.125c2.305-2.305 5.37-3.575 8.63-3.575s6.325 1.27 8.63 3.575c2.306 2.305 3.575 5.37 3.575 8.63s-1.27 6.325-3.575 8.63l-22.125 22.125a12.123 12.123 0 01-8.6 3.573h-.06a12.123 12.123 0 01-8.6-3.573 12.121 12.121 0 01-3.575-8.63zm50.289 12.203h-11.813l11.813-11.813v11.813zm0-56.36c-10.63-7.709-25.622-6.78-35.196 2.795l-22.125 22.125c-8.492 8.493-10.178 21.247-5.071 31.44h-56.479c-6.02-7.114-14.838-11.26-24.329-11.26H259.5a7.5 7.5 0 000 15h64.26c5.8 0 11.128 2.917 14.256 7.808a16.81 16.81 0 012.654 9.092v29.43H71.15v-29.43c0-9.319 7.586-16.9 16.91-16.9H230.5a7.5 7.5 0 000-15h-27.23v-92.225h263.69v47.125zm-278.69-17.712v31.936h-75.85v-31.936h75.85zm-75.85-15v-14.413h75.85v14.413h-75.85zm75.85 61.936v15.876h-75.85v-15.876h75.85zm278.69-91.349H45.039v-15.039H466.96v15.039zm0-30.039H355.67V154.73c0-1.925-.181-3.808-.51-5.64h111.8v35.066zm0-50.066h-12.025l12.025-12.025v12.025z"/></svg>