<svg xmlns="http://www.w3.org/2000/svg" viewBox="0 0 512 512"><path d="M382.733 45.624H108.99c-20.965 0-38.02 17.055-38.02 38.02v192.634c0 20.965 17.055 38.02 38.02 38.02h273.743c20.965 0 38.02-17.055 38.02-38.02V83.644c0-20.965-17.056-38.02-38.02-38.02zm22.812 230.653c0 12.578-10.233 22.812-22.812 22.812H108.99c-12.579 0-22.812-10.234-22.812-22.812V83.644c0-12.578 10.233-22.812 22.812-22.812h273.743c12.579 0 22.812 10.234 22.812 22.812v192.633z"/><path d="M481.584 344.713V27.881C481.584 12.508 469.077 0 453.703 0H58.297C42.923 0 30.416 12.508 30.416 27.881v316.832H0V512h512V344.713h-30.416zM45.624 27.881c0-6.989 5.685-12.673 12.673-12.673h395.406c6.989 0 12.673 5.685 12.673 12.673v316.832H45.624V27.881zm451.168 468.911H228.119v-28.895h-15.208v28.895h-15.208v-28.895h-15.208v28.895h-15.208v-28.895h-15.208v28.895h-15.208v-28.895h-15.208v28.895h-15.208v-28.895H91.247v28.895H76.04v-28.895H60.832v28.895H45.624v-28.895H30.416v28.895H15.208V359.921h481.584v136.871z"/><path d="M212.911 437.481h15.208v15.208h-15.208zm-30.416 0h15.208v15.208h-15.208zm-30.416 0h15.208v15.208h-15.208zm-30.416 0h15.208v15.208h-15.208zm-30.416 0h15.208v15.208H91.247zm-30.415 0H76.04v15.208H60.832zm-30.416 0h15.208v15.208H30.416zM435.96 216.966h15.208v15.208H435.96zm0 40.555h15.208v15.208H435.96zM270.194 395.406h202.772v15.208H270.194zm141.941 30.416h40.555v15.208h-40.555zm-121.664 0h15.208v15.208h-15.208zM30.416 375.129v45.624h55.762v-45.624H30.416zm40.554 30.416H45.624v-15.208H70.97v15.208zm31.937-310.242h182.495v15.208H102.907zm0 30.416h223.049v15.208H102.907zm0 30.416h152.079v15.208H102.907zm0 30.415h202.772v15.208H102.907zm0 30.416h15.208v15.208h-15.208z"/></svg>