<svg xmlns="http://www.w3.org/2000/svg" viewBox="0 0 512 512"><path d="M502 64H10C4.478 64 0 68.477 0 74v364c0 5.523 4.478 10 10 10h492c5.522 0 10-4.477 10-10V74c0-5.523-4.478-10-10-10zM63.01 428H20v-18.917h61.927L63.01 428zm84.557 0H91.295l18.917-18.917h56.271L147.567 428zm84.556 0h-56.271l18.917-18.917h56.271L232.123 428zm84.556 0h-56.271l18.917-18.917h56.271L316.679 428zm84.557 0h-56.272l18.917-18.917h56.271L401.236 428zM492 428h-62.479l18.917-18.917H492V428zm0-38.917H20V361h79c5.522 0 10-4.477 10-10s-4.478-10-10-10H20V157.593l230.138 166.522a9.984 9.984 0 005.862 1.898 9.991 9.991 0 005.862-1.898l162.573-117.634c4.475-3.237 5.477-9.489 2.239-13.964-3.239-4.475-9.492-5.475-13.964-2.239L256 303.671 20 132.907V84h472v305.083z"/><path d="M456.96 168.65c-1.86-1.86-4.44-2.93-7.07-2.93s-5.21 1.07-7.07 2.93c-1.859 1.86-2.93 4.44-2.93 7.07s1.07 5.21 2.93 7.07 4.44 2.93 7.07 2.93 5.21-1.07 7.07-2.93c1.859-1.86 2.93-4.44 2.93-7.07s-1.07-5.21-2.93-7.07zM255.973 97c-41.903 0-75.994 34.091-75.994 75.995v1.011c0 41.903 34.091 75.994 75.995 75.994H304.5c5.522 0 10-4.477 10-10s-4.478-10-10-10h-48.526c-30.875 0-55.994-25.119-55.994-55.995v-1.011c0-30.875 25.119-55.995 55.994-55.995 30.876 0 55.995 25.119 55.995 55.995v16.021c0 4.954-4.03 8.984-8.984 8.984S294 193.97 294 189.016V170.92c0-22.607-18.393-41-41-41-23.71 0-43 19.29-43 43s19.29 43 43 43h12.437c5.522 0 10-4.477 10-10s-4.478-10-10-10H253c-12.683 0-23-10.318-23-23s10.317-23 23-23c11.579 0 21 9.42 21 21v18.096C274 204.998 287.002 218 302.984 218s28.984-13.002 28.984-28.984v-16.021c0-41.904-34.091-75.995-75.995-75.995zM145.069 343.93C143.21 342.07 140.63 341 138 341s-5.21 1.07-7.07 2.93S128 348.37 128 351s1.069 5.21 2.93 7.07c1.861 1.86 4.44 2.93 7.07 2.93s5.21-1.07 7.069-2.93c1.86-1.86 2.931-4.44 2.931-7.07s-1.07-5.21-2.931-7.07z"/></svg>